<svg width="15" height="15" viewBox="0 0 15 15" fill="none" xmlns="http://www.w3.org/2000/svg">
<g clip-path="url(#clip0_1_480)">
<path d="M8.7536 10.5172C8.38042 10.7938 7.94694 10.94 7.50001 10.94C7.05312 10.94 6.61964 10.7938 6.24646 10.5172L0.0998732 5.96157C0.0657716 5.93629 0.0325489 5.90994 0 5.88285V13.3477C0 14.2036 0.624757 14.8828 1.38085 14.8828H13.6191C14.389 14.8828 15 14.1883 15 13.3477V5.88281C14.9674 5.90998 14.9341 5.93639 14.8999 5.9617L8.7536 10.5172Z" fill="#F5F5F5"/>
<path d="M0.587402 4.79466L6.73397 9.60943C6.96665 9.7917 7.23331 9.88281 7.49997 9.88281C7.76666 9.88281 8.03335 9.79166 8.26603 9.60943L14.4126 4.79466C14.7804 4.50672 15 4.0248 15 3.50468C15 2.61036 14.3808 1.88281 13.6196 1.88281H1.38038C0.619248 1.88285 0 2.61039 0 3.50554C0 4.0248 0.219609 4.50672 0.587402 4.79466V4.79466Z" fill="#F5F5F5"/>
</g>
<defs>
<clipPath id="clip0_1_480">
<rect width="15" height="15" fill="white"/>
</clipPath>
</defs>
</svg>
